<svg width="290" height="257" viewBox="0 0 290 257" fill="none" xmlns="http://www.w3.org/2000/svg">
<path d="M126 212C134.056 244.253 145.296 253.102 174 257C156.966 242.599 149.205 233.457 144 212V81H126V212Z" fill="#6EB8B9"/>
<path d="M0 0V19H253C269.557 22.4663 277.462 27.6317 290 40.5C282.067 19.3647 275.179 9.01283 247.5 0H0Z" fill="#6EB8B9"/>
<path d="M149 205C152.922 235.352 165.471 245.87 200 257H267V210H217C203.524 204.643 197.878 199.589 193 185V67H284.5C283.88 42.468 276.312 32.9354 249 24H0V39C4.15262 55.5157 9.73475 61.7474 26 67H149V205Z" fill="#344D6A"/>
</svg>
