<svg width="51" height="45" viewBox="0 0 51 45" fill="none" xmlns="http://www.w3.org/2000/svg">
<path d="M21.8286 36.727C23.2241 42.3146 25.1714 43.8476 30.1442 44.5229C27.1932 42.028 25.8486 40.4442 24.9469 36.727V14.0324H21.8286V36.727Z" fill="#6EB8B9"/>
<path d="M0 0V3.29159H43.8301C46.6984 3.8921 48.068 4.78695 50.24 7.01628C48.8656 3.35477 47.6723 1.5614 42.8772 0H0Z" fill="#6EB8B9"/>
<path d="M25.8129 35.5143C26.4924 40.7726 28.6664 42.5947 34.6482 44.5229H46.2554V36.3805H37.5933C35.2587 35.4525 34.2807 34.5769 33.4355 32.0495V11.607H49.2871C49.1796 7.35708 47.8686 5.70564 43.137 4.15765H0V6.75627C0.719404 9.61747 1.68646 10.6971 4.50427 11.607H25.8129V35.5143Z" fill="#344D6A"/>
</svg>
